<mxfile host="65bd71144e">
    <diagram id="oIQxQyRJ99w0yqNT2jzi" name="Page-1">
        <mxGraphModel dx="2022" dy="481" grid="1" gridSize="10" guides="1" tooltips="1" connect="1" arrows="1" fold="1" page="1" pageScale="1" pageWidth="900" pageHeight="1600" background="#9C9C9C" math="0" shadow="1">
            <root>
                <mxCell id="0"/>
                <mxCell id="1" parent="0"/>
                <mxCell id="28" value="Students" style="shape=table;startSize=30;container=1;collapsible=1;childLayout=tableLayout;fixedRows=1;rowLines=0;fontStyle=1;align=center;resizeLast=1;strokeColor=#000000;labelBorderColor=none;fontColor=#FFFFFF;" parent="1" vertex="1">
                    <mxGeometry x="-89" y="78.5" width="180" height="160" as="geometry">
                        <mxRectangle x="-89" y="78.5" width="80" height="30" as="alternateBounds"/>
                    </mxGeometry>
                </mxCell>
                <mxCell id="29" value="" style="shape=partialRectangle;collapsible=0;dropTarget=0;pointerEvents=0;fillColor=none;top=0;left=0;bottom=1;right=0;points=[[0,0.5],[1,0.5]];portConstraint=eastwest;" parent="28" vertex="1">
                    <mxGeometry y="30" width="180" height="30" as="geometry"/>
                </mxCell>
                <mxCell id="30" value="PK" style="shape=partialRectangle;connectable=0;fillColor=none;top=0;left=0;bottom=0;right=0;fontStyle=1;overflow=hidden;" parent="29" vertex="1">
                    <mxGeometry width="30" height="30" as="geometry"/>
                </mxCell>
                <mxCell id="31" value="Admn.No" style="shape=partialRectangle;connectable=0;fillColor=none;top=0;left=0;bottom=0;right=0;align=left;spacingLeft=6;fontStyle=5;overflow=hidden;" parent="29" vertex="1">
                    <mxGeometry x="30" width="150" height="30" as="geometry"/>
                </mxCell>
                <mxCell id="32" value="" style="shape=partialRectangle;collapsible=0;dropTarget=0;pointerEvents=0;fillColor=none;top=0;left=0;bottom=0;right=0;points=[[0,0.5],[1,0.5]];portConstraint=eastwest;" parent="28" vertex="1">
                    <mxGeometry y="60" width="180" height="30" as="geometry"/>
                </mxCell>
                <mxCell id="33" value="" style="shape=partialRectangle;connectable=0;fillColor=none;top=0;left=0;bottom=0;right=0;editable=1;overflow=hidden;" parent="32" vertex="1">
                    <mxGeometry width="30" height="30" as="geometry"/>
                </mxCell>
                <mxCell id="34" value="Guardian" style="shape=partialRectangle;connectable=0;fillColor=none;top=0;left=0;bottom=0;right=0;align=left;spacingLeft=6;overflow=hidden;" parent="32" vertex="1">
                    <mxGeometry x="30" width="150" height="30" as="geometry"/>
                </mxCell>
                <mxCell id="35" value="" style="shape=partialRectangle;collapsible=0;dropTarget=0;pointerEvents=0;fillColor=none;top=0;left=0;bottom=0;right=0;points=[[0,0.5],[1,0.5]];portConstraint=eastwest;" parent="28" vertex="1">
                    <mxGeometry y="90" width="180" height="30" as="geometry"/>
                </mxCell>
                <mxCell id="36" value="" style="shape=partialRectangle;connectable=0;fillColor=none;top=0;left=0;bottom=0;right=0;editable=1;overflow=hidden;" parent="35" vertex="1">
                    <mxGeometry width="30" height="30" as="geometry"/>
                </mxCell>
                <mxCell id="37" value="DOB" style="shape=partialRectangle;connectable=0;fillColor=none;top=0;left=0;bottom=0;right=0;align=left;spacingLeft=6;overflow=hidden;" parent="35" vertex="1">
                    <mxGeometry x="30" width="150" height="30" as="geometry"/>
                </mxCell>
                <mxCell id="38" value="" style="shape=partialRectangle;collapsible=0;dropTarget=0;pointerEvents=0;fillColor=none;top=0;left=0;bottom=0;right=0;points=[[0,0.5],[1,0.5]];portConstraint=eastwest;" parent="28" vertex="1">
                    <mxGeometry y="120" width="180" height="30" as="geometry"/>
                </mxCell>
                <mxCell id="39" value="FK" style="shape=partialRectangle;connectable=0;fillColor=none;top=0;left=0;bottom=0;right=0;editable=1;overflow=hidden;" parent="38" vertex="1">
                    <mxGeometry width="30" height="30" as="geometry"/>
                </mxCell>
                <mxCell id="40" value="Class-Sec" style="shape=partialRectangle;connectable=0;fillColor=none;top=0;left=0;bottom=0;right=0;align=left;spacingLeft=6;overflow=hidden;" parent="38" vertex="1">
                    <mxGeometry x="30" width="150" height="30" as="geometry"/>
                </mxCell>
                <mxCell id="41" value="Admin" style="shape=table;startSize=30;container=1;collapsible=1;childLayout=tableLayout;fixedRows=1;rowLines=0;fontStyle=1;align=center;resizeLast=1;fontColor=#FFFFFF;strokeColor=#000000;" parent="1" vertex="1">
                    <mxGeometry x="250" y="78.5" width="470" height="188" as="geometry">
                        <mxRectangle x="250" y="78.5" width="70" height="30" as="alternateBounds"/>
                    </mxGeometry>
                </mxCell>
                <mxCell id="42" value="" style="shape=partialRectangle;collapsible=0;dropTarget=0;pointerEvents=0;fillColor=none;top=0;left=0;bottom=1;right=0;points=[[0,0.5],[1,0.5]];portConstraint=eastwest;" parent="41" vertex="1">
                    <mxGeometry y="30" width="470" height="30" as="geometry"/>
                </mxCell>
                <mxCell id="43" value="PK" style="shape=partialRectangle;connectable=0;fillColor=none;top=0;left=0;bottom=0;right=0;fontStyle=1;overflow=hidden;" parent="42" vertex="1">
                    <mxGeometry width="30" height="30" as="geometry"/>
                </mxCell>
                <mxCell id="44" value="Class-Sec" style="shape=partialRectangle;connectable=0;fillColor=none;top=0;left=0;bottom=0;right=0;align=left;spacingLeft=6;fontStyle=5;overflow=hidden;" parent="42" vertex="1">
                    <mxGeometry x="30" width="440" height="30" as="geometry"/>
                </mxCell>
                <mxCell id="45" value="" style="shape=partialRectangle;collapsible=0;dropTarget=0;pointerEvents=0;fillColor=none;top=0;left=0;bottom=0;right=0;points=[[0,0.5],[1,0.5]];portConstraint=eastwest;" parent="41" vertex="1">
                    <mxGeometry y="60" width="470" height="30" as="geometry"/>
                </mxCell>
                <mxCell id="46" value="FK" style="shape=partialRectangle;connectable=0;fillColor=none;top=0;left=0;bottom=0;right=0;editable=1;overflow=hidden;" parent="45" vertex="1">
                    <mxGeometry width="30" height="30" as="geometry"/>
                </mxCell>
                <mxCell id="47" value="Teacher_ID" style="shape=partialRectangle;connectable=0;fillColor=none;top=0;left=0;bottom=0;right=0;align=left;spacingLeft=6;overflow=hidden;" parent="45" vertex="1">
                    <mxGeometry x="30" width="440" height="30" as="geometry"/>
                </mxCell>
                <mxCell id="48" value="" style="shape=partialRectangle;collapsible=0;dropTarget=0;pointerEvents=0;fillColor=none;top=0;left=0;bottom=0;right=0;points=[[0,0.5],[1,0.5]];portConstraint=eastwest;" parent="41" vertex="1">
                    <mxGeometry y="90" width="470" height="34" as="geometry"/>
                </mxCell>
                <mxCell id="49" value="" style="shape=partialRectangle;connectable=0;fillColor=none;top=0;left=0;bottom=0;right=0;editable=1;overflow=hidden;" parent="48" vertex="1">
                    <mxGeometry width="30" height="34" as="geometry"/>
                </mxCell>
                <mxCell id="50" value="" style="shape=partialRectangle;connectable=0;fillColor=none;top=0;left=0;bottom=0;right=0;align=left;spacingLeft=6;overflow=hidden;" parent="48" vertex="1">
                    <mxGeometry x="30" width="440" height="34" as="geometry"/>
                </mxCell>
                <mxCell id="195" value="" style="shape=partialRectangle;collapsible=0;dropTarget=0;pointerEvents=0;fillColor=none;top=0;left=0;bottom=0;right=0;points=[[0,0.5],[1,0.5]];portConstraint=eastwest;" parent="41" vertex="1">
                    <mxGeometry y="124" width="470" height="34" as="geometry"/>
                </mxCell>
                <mxCell id="196" value="" style="shape=partialRectangle;connectable=0;fillColor=none;top=0;left=0;bottom=0;right=0;editable=1;overflow=hidden;" parent="195" vertex="1">
                    <mxGeometry width="30" height="34" as="geometry"/>
                </mxCell>
                <mxCell id="197" value="SubjectsÂ  (in Alphabetical Order)" style="shape=partialRectangle;connectable=0;fillColor=none;top=0;left=0;bottom=0;right=0;align=left;spacingLeft=6;overflow=hidden;" parent="195" vertex="1">
                    <mxGeometry x="30" width="440" height="34" as="geometry"/>
                </mxCell>
                <mxCell id="51" value="" style="shape=partialRectangle;collapsible=0;dropTarget=0;pointerEvents=0;fillColor=none;top=0;left=0;bottom=0;right=0;points=[[0,0.5],[1,0.5]];portConstraint=eastwest;" parent="41" vertex="1">
                    <mxGeometry y="158" width="470" height="30" as="geometry"/>
                </mxCell>
                <mxCell id="52" value="" style="shape=partialRectangle;connectable=0;fillColor=none;top=0;left=0;bottom=0;right=0;editable=1;overflow=hidden;" parent="51" vertex="1">
                    <mxGeometry width="30" height="30" as="geometry"/>
                </mxCell>
                <mxCell id="53" value="" style="shape=partialRectangle;connectable=0;fillColor=none;top=0;left=0;bottom=0;right=0;align=left;spacingLeft=6;overflow=hidden;" parent="51" vertex="1">
                    <mxGeometry x="30" width="440" height="30" as="geometry"/>
                </mxCell>
                <mxCell id="55" value="Teachers" style="shape=table;startSize=30;container=1;collapsible=1;childLayout=tableLayout;fixedRows=1;rowLines=0;fontStyle=1;align=center;resizeLast=1;fontColor=#FFFFFF;strokeColor=#000000;" parent="1" vertex="1">
                    <mxGeometry x="-230" y="280" width="472" height="160" as="geometry">
                        <mxRectangle x="-230" y="280" width="80" height="30" as="alternateBounds"/>
                    </mxGeometry>
                </mxCell>
                <mxCell id="56" value="" style="shape=partialRectangle;collapsible=0;dropTarget=0;pointerEvents=0;fillColor=none;top=0;left=0;bottom=1;right=0;points=[[0,0.5],[1,0.5]];portConstraint=eastwest;" parent="55" vertex="1">
                    <mxGeometry y="30" width="472" height="30" as="geometry"/>
                </mxCell>
                <mxCell id="57" value="PK" style="shape=partialRectangle;connectable=0;fillColor=none;top=0;left=0;bottom=0;right=0;fontStyle=1;overflow=hidden;" parent="56" vertex="1">
                    <mxGeometry width="30" height="30" as="geometry"/>
                </mxCell>
                <mxCell id="58" value="Teacher_ID" style="shape=partialRectangle;connectable=0;fillColor=none;top=0;left=0;bottom=0;right=0;align=left;spacingLeft=6;fontStyle=5;overflow=hidden;" parent="56" vertex="1">
                    <mxGeometry x="30" width="442" height="30" as="geometry"/>
                </mxCell>
                <mxCell id="59" value="" style="shape=partialRectangle;collapsible=0;dropTarget=0;pointerEvents=0;fillColor=none;top=0;left=0;bottom=0;right=0;points=[[0,0.5],[1,0.5]];portConstraint=eastwest;" parent="55" vertex="1">
                    <mxGeometry y="60" width="472" height="30" as="geometry"/>
                </mxCell>
                <mxCell id="60" value="" style="shape=partialRectangle;connectable=0;fillColor=none;top=0;left=0;bottom=0;right=0;editable=1;overflow=hidden;" parent="59" vertex="1">
                    <mxGeometry width="30" height="30" as="geometry"/>
                </mxCell>
                <mxCell id="61" value="Name" style="shape=partialRectangle;connectable=0;fillColor=none;top=0;left=0;bottom=0;right=0;align=left;spacingLeft=6;overflow=hidden;" parent="59" vertex="1">
                    <mxGeometry x="30" width="442" height="30" as="geometry"/>
                </mxCell>
                <mxCell id="62" value="" style="shape=partialRectangle;collapsible=0;dropTarget=0;pointerEvents=0;fillColor=none;top=0;left=0;bottom=0;right=0;points=[[0,0.5],[1,0.5]];portConstraint=eastwest;" parent="55" vertex="1">
                    <mxGeometry y="90" width="472" height="30" as="geometry"/>
                </mxCell>
                <mxCell id="63" value="" style="shape=partialRectangle;connectable=0;fillColor=none;top=0;left=0;bottom=0;right=0;editable=1;overflow=hidden;" parent="62" vertex="1">
                    <mxGeometry width="30" height="30" as="geometry"/>
                </mxCell>
                <mxCell id="64" value="Password" style="shape=partialRectangle;connectable=0;fillColor=none;top=0;left=0;bottom=0;right=0;align=left;spacingLeft=6;overflow=hidden;" parent="62" vertex="1">
                    <mxGeometry x="30" width="442" height="30" as="geometry"/>
                </mxCell>
                <mxCell id="65" value="" style="shape=partialRectangle;collapsible=0;dropTarget=0;pointerEvents=0;fillColor=none;top=0;left=0;bottom=0;right=0;points=[[0,0.5],[1,0.5]];portConstraint=eastwest;" parent="55" vertex="1">
                    <mxGeometry y="120" width="472" height="30" as="geometry"/>
                </mxCell>
                <mxCell id="66" value="" style="shape=partialRectangle;connectable=0;fillColor=none;top=0;left=0;bottom=0;right=0;editable=1;overflow=hidden;" parent="65" vertex="1">
                    <mxGeometry width="30" height="30" as="geometry"/>
                </mxCell>
                <mxCell id="67" value="" style="shape=partialRectangle;connectable=0;fillColor=none;top=0;left=0;bottom=0;right=0;align=left;spacingLeft=6;overflow=hidden;" parent="65" vertex="1">
                    <mxGeometry x="30" width="442" height="30" as="geometry"/>
                </mxCell>
                <mxCell id="142" value="" style="edgeStyle=entityRelationEdgeStyle;fontSize=12;html=1;endArrow=ERmandOne;startArrow=ERmandOne;fontColor=#FFFFFF;exitX=1;exitY=0.5;exitDx=0;exitDy=0;" parent="1" source="56" target="45" edge="1">
                    <mxGeometry width="100" height="100" relative="1" as="geometry">
                        <mxPoint x="240" y="290" as="sourcePoint"/>
                        <mxPoint x="210" y="210" as="targetPoint"/>
                    </mxGeometry>
                </mxCell>
                <mxCell id="143" value="" style="edgeStyle=entityRelationEdgeStyle;fontSize=12;html=1;endArrow=ERmandOne;startArrow=ERmandOne;fontColor=#FFFFFF;entryX=0.002;entryY=0.31;entryDx=0;entryDy=0;entryPerimeter=0;exitX=1;exitY=0.717;exitDx=0;exitDy=0;exitPerimeter=0;" parent="1" source="38" target="42" edge="1">
                    <mxGeometry width="100" height="100" relative="1" as="geometry">
                        <mxPoint x="240" y="220" as="sourcePoint"/>
                        <mxPoint x="240" y="130" as="targetPoint"/>
                    </mxGeometry>
                </mxCell>
                <mxCell id="144" value="Students-12A" style="shape=table;startSize=30;container=1;collapsible=1;childLayout=tableLayout;fixedRows=1;rowLines=0;fontStyle=1;align=center;resizeLast=1;fontColor=#FFFFFF;strokeColor=#000000;" parent="1" vertex="1">
                    <mxGeometry x="-580" y="600" width="450" height="150" as="geometry"/>
                </mxCell>
                <mxCell id="145" value="" style="shape=partialRectangle;collapsible=0;dropTarget=0;pointerEvents=0;fillColor=none;top=0;left=0;bottom=1;right=0;points=[[0,0.5],[1,0.5]];portConstraint=eastwest;" parent="144" vertex="1">
                    <mxGeometry y="30" width="450" height="30" as="geometry"/>
                </mxCell>
                <mxCell id="146" value="PK" style="shape=partialRectangle;connectable=0;fillColor=none;top=0;left=0;bottom=0;right=0;fontStyle=1;overflow=hidden;" parent="145" vertex="1">
                    <mxGeometry width="30" height="30" as="geometry"/>
                </mxCell>
                <mxCell id="147" value="RollÂ  (Auto Increment)" style="shape=partialRectangle;connectable=0;fillColor=none;top=0;left=0;bottom=0;right=0;align=left;spacingLeft=6;fontStyle=5;overflow=hidden;" parent="145" vertex="1">
                    <mxGeometry x="30" width="420" height="30" as="geometry"/>
                </mxCell>
                <mxCell id="148" value="" style="shape=partialRectangle;collapsible=0;dropTarget=0;pointerEvents=0;fillColor=none;top=0;left=0;bottom=0;right=0;points=[[0,0.5],[1,0.5]];portConstraint=eastwest;" parent="144" vertex="1">
                    <mxGeometry y="60" width="450" height="30" as="geometry"/>
                </mxCell>
                <mxCell id="149" value="FK" style="shape=partialRectangle;connectable=0;fillColor=none;top=0;left=0;bottom=0;right=0;editable=1;overflow=hidden;" parent="148" vertex="1">
                    <mxGeometry width="30" height="30" as="geometry"/>
                </mxCell>
                <mxCell id="150" value="Admn.No." style="shape=partialRectangle;connectable=0;fillColor=none;top=0;left=0;bottom=0;right=0;align=left;spacingLeft=6;overflow=hidden;" parent="148" vertex="1">
                    <mxGeometry x="30" width="420" height="30" as="geometry"/>
                </mxCell>
                <mxCell id="151" value="" style="shape=partialRectangle;collapsible=0;dropTarget=0;pointerEvents=0;fillColor=none;top=0;left=0;bottom=0;right=0;points=[[0,0.5],[1,0.5]];portConstraint=eastwest;" parent="144" vertex="1">
                    <mxGeometry y="90" width="450" height="30" as="geometry"/>
                </mxCell>
                <mxCell id="152" value="" style="shape=partialRectangle;connectable=0;fillColor=none;top=0;left=0;bottom=0;right=0;editable=1;overflow=hidden;" parent="151" vertex="1">
                    <mxGeometry width="30" height="30" as="geometry"/>
                </mxCell>
                <mxCell id="153" value="" style="shape=partialRectangle;connectable=0;fillColor=none;top=0;left=0;bottom=0;right=0;align=left;spacingLeft=6;overflow=hidden;" parent="151" vertex="1">
                    <mxGeometry x="30" width="420" height="30" as="geometry"/>
                </mxCell>
                <mxCell id="154" value="" style="shape=partialRectangle;collapsible=0;dropTarget=0;pointerEvents=0;fillColor=none;top=0;left=0;bottom=0;right=0;points=[[0,0.5],[1,0.5]];portConstraint=eastwest;" parent="144" vertex="1">
                    <mxGeometry y="120" width="450" height="30" as="geometry"/>
                </mxCell>
                <mxCell id="155" value="" style="shape=partialRectangle;connectable=0;fillColor=none;top=0;left=0;bottom=0;right=0;editable=1;overflow=hidden;" parent="154" vertex="1">
                    <mxGeometry width="30" height="30" as="geometry"/>
                </mxCell>
                <mxCell id="156" value="" style="shape=partialRectangle;connectable=0;fillColor=none;top=0;left=0;bottom=0;right=0;align=left;spacingLeft=6;overflow=hidden;" parent="154" vertex="1">
                    <mxGeometry x="30" width="420" height="30" as="geometry"/>
                </mxCell>
                <mxCell id="163" value="Marks-12A" style="shape=table;startSize=30;container=1;collapsible=1;childLayout=tableLayout;fixedRows=1;rowLines=0;fontStyle=1;align=center;resizeLast=1;fontColor=#FFFFFF;strokeColor=#000000;" parent="1" vertex="1">
                    <mxGeometry x="-10" y="600" width="690" height="220" as="geometry"/>
                </mxCell>
                <mxCell id="164" value="" style="shape=partialRectangle;collapsible=0;dropTarget=0;pointerEvents=0;fillColor=none;top=0;left=0;bottom=1;right=0;points=[[0,0.5],[1,0.5]];portConstraint=eastwest;" parent="163" vertex="1">
                    <mxGeometry y="30" width="690" height="40" as="geometry"/>
                </mxCell>
                <mxCell id="165" value="PK , FK" style="shape=partialRectangle;connectable=0;fillColor=none;top=0;left=0;bottom=0;right=0;fontStyle=1;overflow=hidden;" parent="164" vertex="1">
                    <mxGeometry width="50" height="40" as="geometry"/>
                </mxCell>
                <mxCell id="166" value="RollÂ  Â " style="shape=partialRectangle;connectable=0;fillColor=none;top=0;left=0;bottom=0;right=0;align=left;spacingLeft=6;fontStyle=1;overflow=hidden;" parent="164" vertex="1">
                    <mxGeometry x="50" width="640" height="40" as="geometry"/>
                </mxCell>
                <mxCell id="167" value="" style="shape=partialRectangle;collapsible=0;dropTarget=0;pointerEvents=0;fillColor=none;top=0;left=0;bottom=0;right=0;points=[[0,0.5],[1,0.5]];portConstraint=eastwest;" parent="163" vertex="1">
                    <mxGeometry y="70" width="690" height="30" as="geometry"/>
                </mxCell>
                <mxCell id="168" value="" style="shape=partialRectangle;connectable=0;fillColor=none;top=0;left=0;bottom=0;right=0;editable=1;overflow=hidden;" parent="167" vertex="1">
                    <mxGeometry width="50" height="30" as="geometry"/>
                </mxCell>
                <mxCell id="169" value="Attendance" style="shape=partialRectangle;connectable=0;fillColor=none;top=0;left=0;bottom=0;right=0;align=left;spacingLeft=6;overflow=hidden;" parent="167" vertex="1">
                    <mxGeometry x="50" width="640" height="30" as="geometry"/>
                </mxCell>
                <mxCell id="170" value="" style="shape=partialRectangle;collapsible=0;dropTarget=0;pointerEvents=0;fillColor=none;top=0;left=0;bottom=0;right=0;points=[[0,0.5],[1,0.5]];portConstraint=eastwest;" parent="163" vertex="1">
                    <mxGeometry y="100" width="690" height="30" as="geometry"/>
                </mxCell>
                <mxCell id="171" value="" style="shape=partialRectangle;connectable=0;fillColor=none;top=0;left=0;bottom=0;right=0;editable=1;overflow=hidden;" parent="170" vertex="1">
                    <mxGeometry width="50" height="30" as="geometry"/>
                </mxCell>
                <mxCell id="172" value="Subject 1" style="shape=partialRectangle;connectable=0;fillColor=none;top=0;left=0;bottom=0;right=0;align=left;spacingLeft=6;overflow=hidden;" parent="170" vertex="1">
                    <mxGeometry x="50" width="640" height="30" as="geometry"/>
                </mxCell>
                <mxCell id="173" value="" style="shape=partialRectangle;collapsible=0;dropTarget=0;pointerEvents=0;fillColor=none;top=0;left=0;bottom=0;right=0;points=[[0,0.5],[1,0.5]];portConstraint=eastwest;" parent="163" vertex="1">
                    <mxGeometry y="130" width="690" height="30" as="geometry"/>
                </mxCell>
                <mxCell id="174" value="" style="shape=partialRectangle;connectable=0;fillColor=none;top=0;left=0;bottom=0;right=0;editable=1;overflow=hidden;" parent="173" vertex="1">
                    <mxGeometry width="50" height="30" as="geometry"/>
                </mxCell>
                <mxCell id="175" value="Subject 2" style="shape=partialRectangle;connectable=0;fillColor=none;top=0;left=0;bottom=0;right=0;align=left;spacingLeft=6;overflow=hidden;" parent="173" vertex="1">
                    <mxGeometry x="50" width="640" height="30" as="geometry"/>
                </mxCell>
                <mxCell id="190" value="" style="shape=partialRectangle;collapsible=0;dropTarget=0;pointerEvents=0;fillColor=none;top=0;left=0;bottom=0;right=0;points=[[0,0.5],[1,0.5]];portConstraint=eastwest;" parent="163" vertex="1">
                    <mxGeometry y="160" width="690" height="30" as="geometry"/>
                </mxCell>
                <mxCell id="191" value="" style="shape=partialRectangle;connectable=0;fillColor=none;top=0;left=0;bottom=0;right=0;editable=1;overflow=hidden;" parent="190" vertex="1">
                    <mxGeometry width="50" height="30" as="geometry"/>
                </mxCell>
                <mxCell id="192" value="Subject 3" style="shape=partialRectangle;connectable=0;fillColor=none;top=0;left=0;bottom=0;right=0;align=left;spacingLeft=6;overflow=hidden;" parent="190" vertex="1">
                    <mxGeometry x="50" width="640" height="30" as="geometry"/>
                </mxCell>
                <mxCell id="176" value="" style="edgeStyle=entityRelationEdgeStyle;fontSize=12;html=1;endArrow=ERone;endFill=1;fontColor=#FFFFFF;exitX=1;exitY=0.5;exitDx=0;exitDy=0;" parent="1" source="145" target="164" edge="1">
                    <mxGeometry width="100" height="100" relative="1" as="geometry">
                        <mxPoint x="-190" y="630" as="sourcePoint"/>
                        <mxPoint x="-90" y="530" as="targetPoint"/>
                    </mxGeometry>
                </mxCell>
                <mxCell id="194" value="" style="edgeStyle=orthogonalEdgeStyle;fontSize=12;html=1;endArrow=ERzeroToMany;startArrow=ERmandOne;fontColor=#FFFFFF;elbow=vertical;entryX=1.001;entryY=0.244;entryDx=0;entryDy=0;entryPerimeter=0;" parent="1" source="48" target="173" edge="1">
                    <mxGeometry width="100" height="100" relative="1" as="geometry">
                        <mxPoint x="740" y="210" as="sourcePoint"/>
                        <mxPoint x="700" y="690" as="targetPoint"/>
                        <Array as="points">
                            <mxPoint x="770" y="200"/>
                            <mxPoint x="770" y="737"/>
                        </Array>
                    </mxGeometry>
                </mxCell>
            </root>
        </mxGraphModel>
    </diagram>
    <diagram id="sR3xg9FtY8wLBwxeg6wa" name="Page-2">
        <mxGraphModel dx="1122" dy="481" grid="1" gridSize="10" guides="1" tooltips="1" connect="1" arrows="1" fold="1" page="1" pageScale="1" pageWidth="1200" pageHeight="1920" background="#854100" math="0" shadow="0">
            <root>
                <mxCell id="Pp3ixRvNT5yIHclJK6_6-0"/>
                <mxCell id="Pp3ixRvNT5yIHclJK6_6-1" parent="Pp3ixRvNT5yIHclJK6_6-0"/>
                <mxCell id="NXDeuuNNnxQUC-3iIf2m-0" value="" style="group" parent="Pp3ixRvNT5yIHclJK6_6-1" vertex="1" connectable="0">
                    <mxGeometry x="40" y="30" width="536" height="400" as="geometry"/>
                </mxCell>
                <mxCell id="VFKwjuI6PaATOPqBNlFi-2" value="&lt;h1&gt;&lt;font style=&quot;font-size: 41px&quot; face=&quot;Times New Roman&quot;&gt;ADMIN&lt;/font&gt;&lt;/h1&gt;" style="ellipse;whiteSpace=wrap;html=1;align=center;newEdgeStyle={&quot;edgeStyle&quot;:&quot;entityRelationEdgeStyle&quot;,&quot;startArrow&quot;:&quot;none&quot;,&quot;endArrow&quot;:&quot;none&quot;,&quot;segment&quot;:10,&quot;curved&quot;:1};treeFolding=1;treeMoving=1;" parent="NXDeuuNNnxQUC-3iIf2m-0" vertex="1">
                    <mxGeometry x="196" y="-10" width="180" height="90" as="geometry"/>
                </mxCell>
                <mxCell id="VFKwjuI6PaATOPqBNlFi-3" value="&lt;font style=&quot;font-size: 16px&quot;&gt;Primary Key&lt;/font&gt;" style="whiteSpace=wrap;html=1;rounded=1;arcSize=50;align=center;verticalAlign=middle;strokeWidth=1;autosize=1;spacing=4;treeFolding=1;treeMoving=1;newEdgeStyle={&quot;edgeStyle&quot;:&quot;entityRelationEdgeStyle&quot;,&quot;startArrow&quot;:&quot;none&quot;,&quot;endArrow&quot;:&quot;none&quot;,&quot;segment&quot;:10,&quot;curved&quot;:1};" parent="NXDeuuNNnxQUC-3iIf2m-0" vertex="1">
                    <mxGeometry x="49" y="105" width="130" height="30" as="geometry"/>
                </mxCell>
                <mxCell id="VFKwjuI6PaATOPqBNlFi-5" value="" style="edgeStyle=entityRelationEdgeStyle;fontSize=12;html=1;endArrow=ERzeroToOne;startArrow=ERmandOne;entryX=0;entryY=0.5;entryDx=0;entryDy=0;exitX=0.5;exitY=0;exitDx=0;exitDy=0;" parent="NXDeuuNNnxQUC-3iIf2m-0" source="VFKwjuI6PaATOPqBNlFi-3" target="VFKwjuI6PaATOPqBNlFi-2" edge="1">
                    <mxGeometry width="100" height="100" relative="1" as="geometry">
                        <mxPoint x="76" y="170" as="sourcePoint"/>
                        <mxPoint x="176" y="70" as="targetPoint"/>
                    </mxGeometry>
                </mxCell>
                <mxCell id="VFKwjuI6PaATOPqBNlFi-25" style="edgeStyle=none;html=1;exitX=0.5;exitY=1;exitDx=0;exitDy=0;" parent="NXDeuuNNnxQUC-3iIf2m-0" source="VFKwjuI6PaATOPqBNlFi-8" edge="1">
                    <mxGeometry relative="1" as="geometry">
                        <mxPoint x="55.285714285714334" y="230" as="targetPoint"/>
                    </mxGeometry>
                </mxCell>
                <mxCell id="VFKwjuI6PaATOPqBNlFi-8" value="1.Teacher ID" style="whiteSpace=wrap;html=1;align=center;verticalAlign=middle;treeFolding=1;treeMoving=1;" parent="NXDeuuNNnxQUC-3iIf2m-0" vertex="1">
                    <mxGeometry x="4" y="175" width="102" height="25" as="geometry"/>
                </mxCell>
                <mxCell id="VFKwjuI6PaATOPqBNlFi-30" style="edgeStyle=none;html=1;exitX=0.5;exitY=1;exitDx=0;exitDy=0;" parent="NXDeuuNNnxQUC-3iIf2m-0" source="VFKwjuI6PaATOPqBNlFi-9" edge="1">
                    <mxGeometry relative="1" as="geometry">
                        <mxPoint x="170.1428571428571" y="230" as="targetPoint"/>
                    </mxGeometry>
                </mxCell>
                <mxCell id="VFKwjuI6PaATOPqBNlFi-9" value="2.Username" style="whiteSpace=wrap;html=1;align=center;verticalAlign=middle;treeFolding=1;treeMoving=1;" parent="NXDeuuNNnxQUC-3iIf2m-0" vertex="1">
                    <mxGeometry x="124" y="175" width="92" height="25" as="geometry"/>
                </mxCell>
                <mxCell id="VFKwjuI6PaATOPqBNlFi-13" value="" style="endArrow=classic;html=1;exitX=0.5;exitY=1;exitDx=0;exitDy=0;entryX=0.5;entryY=0;entryDx=0;entryDy=0;" parent="NXDeuuNNnxQUC-3iIf2m-0" source="VFKwjuI6PaATOPqBNlFi-3" target="VFKwjuI6PaATOPqBNlFi-8" edge="1">
                    <mxGeometry width="50" height="50" relative="1" as="geometry">
                        <mxPoint x="216" y="190" as="sourcePoint"/>
                        <mxPoint x="266" y="140" as="targetPoint"/>
                    </mxGeometry>
                </mxCell>
                <mxCell id="VFKwjuI6PaATOPqBNlFi-14" value="" style="endArrow=classic;html=1;exitX=0.5;exitY=1;exitDx=0;exitDy=0;entryX=0.5;entryY=0;entryDx=0;entryDy=0;" parent="NXDeuuNNnxQUC-3iIf2m-0" source="VFKwjuI6PaATOPqBNlFi-3" target="VFKwjuI6PaATOPqBNlFi-9" edge="1">
                    <mxGeometry width="50" height="50" relative="1" as="geometry">
                        <mxPoint x="216" y="190" as="sourcePoint"/>
                        <mxPoint x="266" y="140" as="targetPoint"/>
                    </mxGeometry>
                </mxCell>
                <mxCell id="VFKwjuI6PaATOPqBNlFi-24" value="Admin's Work" style="rounded=1;arcSize=10;whiteSpace=wrap;html=1;align=center;" parent="NXDeuuNNnxQUC-3iIf2m-0" vertex="1">
                    <mxGeometry x="270" y="200" width="100" height="40" as="geometry"/>
                </mxCell>
                <mxCell id="eg9HoDoHFmB2oO4siofI-19" style="edgeStyle=none;html=1;exitX=0.5;exitY=1;exitDx=0;exitDy=0;entryX=0;entryY=0.5;entryDx=0;entryDy=0;fontSize=32;fontColor=#33FFFF;" parent="NXDeuuNNnxQUC-3iIf2m-0" source="VFKwjuI6PaATOPqBNlFi-26" target="VFKwjuI6PaATOPqBNlFi-28" edge="1">
                    <mxGeometry relative="1" as="geometry"/>
                </mxCell>
                <mxCell id="VFKwjuI6PaATOPqBNlFi-26" value="most probably&lt;br&gt;auto increment" style="rounded=1;arcSize=10;whiteSpace=wrap;html=1;align=center;" parent="NXDeuuNNnxQUC-3iIf2m-0" vertex="1">
                    <mxGeometry y="230" width="110" height="50" as="geometry"/>
                </mxCell>
                <mxCell id="VFKwjuI6PaATOPqBNlFi-29" style="edgeStyle=none;html=1;exitX=1;exitY=0;exitDx=0;exitDy=0;entryX=0.5;entryY=1;entryDx=0;entryDy=0;" parent="NXDeuuNNnxQUC-3iIf2m-0" source="VFKwjuI6PaATOPqBNlFi-28" target="VFKwjuI6PaATOPqBNlFi-24" edge="1">
                    <mxGeometry relative="1" as="geometry"/>
                </mxCell>
                <mxCell id="VFKwjuI6PaATOPqBNlFi-28" value="IF NOT" style="rounded=1;arcSize=10;whiteSpace=wrap;html=1;align=center;" parent="NXDeuuNNnxQUC-3iIf2m-0" vertex="1">
                    <mxGeometry x="106" y="300" width="100" height="40" as="geometry"/>
                </mxCell>
                <mxCell id="VFKwjuI6PaATOPqBNlFi-31" value="&lt;font style=&quot;font-size: 11px&quot;&gt;most probably teacher ka full name&lt;/font&gt;" style="rounded=1;arcSize=10;whiteSpace=wrap;html=1;align=center;" parent="NXDeuuNNnxQUC-3iIf2m-0" vertex="1">
                    <mxGeometry x="120" y="230" width="100" height="50" as="geometry"/>
                </mxCell>
                <mxCell id="eg9HoDoHFmB2oO4siofI-47" style="edgeStyle=none;html=1;exitX=0;exitY=0.75;exitDx=0;exitDy=0;entryX=1;entryY=0.5;entryDx=0;entryDy=0;fontSize=32;fontColor=#33FFFF;" parent="NXDeuuNNnxQUC-3iIf2m-0" source="VFKwjuI6PaATOPqBNlFi-32" target="VFKwjuI6PaATOPqBNlFi-24" edge="1">
                    <mxGeometry relative="1" as="geometry"/>
                </mxCell>
                <mxCell id="VFKwjuI6PaATOPqBNlFi-32" value="4.CLASS" style="whiteSpace=wrap;html=1;rounded=1;arcSize=50;align=center;verticalAlign=middle;strokeWidth=1;autosize=1;spacing=4;treeFolding=1;treeMoving=1;newEdgeStyle={&quot;edgeStyle&quot;:&quot;entityRelationEdgeStyle&quot;,&quot;startArrow&quot;:&quot;none&quot;,&quot;endArrow&quot;:&quot;none&quot;,&quot;segment&quot;:10,&quot;curved&quot;:1};" parent="NXDeuuNNnxQUC-3iIf2m-0" vertex="1">
                    <mxGeometry x="460" y="120" width="90" height="30" as="geometry"/>
                </mxCell>
                <mxCell id="VFKwjuI6PaATOPqBNlFi-33" value="" style="edgeStyle=entityRelationEdgeStyle;startArrow=none;endArrow=none;segment=10;curved=1;exitX=1;exitY=0.5;exitDx=0;exitDy=0;" parent="NXDeuuNNnxQUC-3iIf2m-0" source="VFKwjuI6PaATOPqBNlFi-2" target="VFKwjuI6PaATOPqBNlFi-32" edge="1">
                    <mxGeometry relative="1" as="geometry">
                        <mxPoint x="286" y="175" as="sourcePoint"/>
                    </mxGeometry>
                </mxCell>
                <mxCell id="NXDeuuNNnxQUC-3iIf2m-3" style="edgeStyle=none;html=1;exitX=0.25;exitY=1;exitDx=0;exitDy=0;entryX=0.5;entryY=0;entryDx=0;entryDy=0;" parent="NXDeuuNNnxQUC-3iIf2m-0" source="VFKwjuI6PaATOPqBNlFi-34" target="VFKwjuI6PaATOPqBNlFi-24" edge="1">
                    <mxGeometry relative="1" as="geometry"/>
                </mxCell>
                <mxCell id="VFKwjuI6PaATOPqBNlFi-34" value="3.Subjects&amp;nbsp; &lt;br&gt;&amp;nbsp;(Only initials)" style="whiteSpace=wrap;html=1;rounded=1;arcSize=50;align=center;verticalAlign=middle;strokeWidth=1;autosize=1;spacing=4;treeFolding=1;treeMoving=1;newEdgeStyle={&quot;edgeStyle&quot;:&quot;entityRelationEdgeStyle&quot;,&quot;startArrow&quot;:&quot;none&quot;,&quot;endArrow&quot;:&quot;none&quot;,&quot;segment&quot;:10,&quot;curved&quot;:1};" parent="NXDeuuNNnxQUC-3iIf2m-0" vertex="1">
                    <mxGeometry x="292" y="110" width="110" height="40" as="geometry"/>
                </mxCell>
                <mxCell id="VFKwjuI6PaATOPqBNlFi-35" value="" style="edgeStyle=entityRelationEdgeStyle;startArrow=none;endArrow=none;segment=10;curved=1;" parent="NXDeuuNNnxQUC-3iIf2m-0" target="VFKwjuI6PaATOPqBNlFi-34" edge="1">
                    <mxGeometry relative="1" as="geometry">
                        <mxPoint x="256" y="77" as="sourcePoint"/>
                    </mxGeometry>
                </mxCell>
                <mxCell id="eg9HoDoHFmB2oO4siofI-20" style="edgeStyle=none;html=1;exitX=0.5;exitY=1;exitDx=0;exitDy=0;entryX=0.5;entryY=0;entryDx=0;entryDy=0;fontSize=32;fontColor=#33FFFF;" parent="NXDeuuNNnxQUC-3iIf2m-0" source="VFKwjuI6PaATOPqBNlFi-37" target="VFKwjuI6PaATOPqBNlFi-39" edge="1">
                    <mxGeometry relative="1" as="geometry"/>
                </mxCell>
                <mxCell id="VFKwjuI6PaATOPqBNlFi-37" value="&lt;span style=&quot;font-size: 11px&quot;&gt;Can be seperate&lt;/span&gt;" style="rounded=1;arcSize=10;whiteSpace=wrap;html=1;align=center;" parent="NXDeuuNNnxQUC-3iIf2m-0" vertex="1">
                    <mxGeometry x="455" y="220" width="100" height="50" as="geometry"/>
                </mxCell>
                <mxCell id="VFKwjuI6PaATOPqBNlFi-36" style="edgeStyle=none;html=1;exitX=0.5;exitY=1;exitDx=0;exitDy=0;" parent="NXDeuuNNnxQUC-3iIf2m-0" source="VFKwjuI6PaATOPqBNlFi-32" target="VFKwjuI6PaATOPqBNlFi-37" edge="1">
                    <mxGeometry relative="1" as="geometry">
                        <mxPoint x="451.8571428571429" y="270" as="targetPoint"/>
                    </mxGeometry>
                </mxCell>
                <mxCell id="VFKwjuI6PaATOPqBNlFi-43" style="edgeStyle=none;html=1;exitX=0.5;exitY=0;exitDx=0;exitDy=0;entryX=0.5;entryY=1;entryDx=0;entryDy=0;" parent="NXDeuuNNnxQUC-3iIf2m-0" source="VFKwjuI6PaATOPqBNlFi-39" target="VFKwjuI6PaATOPqBNlFi-24" edge="1">
                    <mxGeometry relative="1" as="geometry">
                        <mxPoint x="296" y="251" as="targetPoint"/>
                    </mxGeometry>
                </mxCell>
                <mxCell id="VFKwjuI6PaATOPqBNlFi-39" value="&lt;span style=&quot;font-size: 11px&quot;&gt;IF CLASS TEACHER&lt;/span&gt;" style="rounded=1;arcSize=10;whiteSpace=wrap;html=1;align=center;" parent="NXDeuuNNnxQUC-3iIf2m-0" vertex="1">
                    <mxGeometry x="420" y="300" width="100" height="40" as="geometry"/>
                </mxCell>
                <mxCell id="eg9HoDoHFmB2oO4siofI-22" style="edgeStyle=none;html=1;exitX=0.5;exitY=0;exitDx=0;exitDy=0;fontSize=32;fontColor=#33FFFF;" parent="NXDeuuNNnxQUC-3iIf2m-0" source="eg9HoDoHFmB2oO4siofI-21" target="VFKwjuI6PaATOPqBNlFi-24" edge="1">
                    <mxGeometry relative="1" as="geometry"/>
                </mxCell>
                <UserObject label="&lt;font color=&quot;#ffffff&quot; style=&quot;font-size: 21px&quot;&gt;5.Password&lt;/font&gt;" treeRoot="1" id="eg9HoDoHFmB2oO4siofI-21">
                    <mxCell style="whiteSpace=wrap;html=1;align=center;treeFolding=1;treeMoving=1;newEdgeStyle={&quot;edgeStyle&quot;:&quot;elbowEdgeStyle&quot;,&quot;startArrow&quot;:&quot;none&quot;,&quot;endArrow&quot;:&quot;none&quot;};fontSize=32;fontColor=#33FFFF;" parent="NXDeuuNNnxQUC-3iIf2m-0" vertex="1">
                        <mxGeometry x="260" y="340" width="120" height="60" as="geometry"/>
                    </mxCell>
                </UserObject>
                <mxCell id="NXDeuuNNnxQUC-3iIf2m-4" value="" style="endArrow=none;html=1;rounded=0;" parent="Pp3ixRvNT5yIHclJK6_6-1" edge="1">
                    <mxGeometry relative="1" as="geometry">
                        <mxPoint y="480" as="sourcePoint"/>
                        <mxPoint x="680" y="480" as="targetPoint"/>
                        <Array as="points">
                            <mxPoint x="350" y="480"/>
                        </Array>
                    </mxGeometry>
                </mxCell>
                <mxCell id="NXDeuuNNnxQUC-3iIf2m-6" value="" style="html=1;shadow=0;dashed=0;align=center;verticalAlign=middle;shape=mxgraph.arrows2.arrow;dy=0.67;dx=20;notch=0;" parent="Pp3ixRvNT5yIHclJK6_6-1" vertex="1">
                    <mxGeometry x="680" y="170" width="100" height="60" as="geometry"/>
                </mxCell>
                <mxCell id="NXDeuuNNnxQUC-3iIf2m-7" value="PYTHON'S WORK" style="swimlane;startSize=60;horizontal=1;childLayout=flowLayout;flowOrientation=north;resizable=0;interRankCellSpacing=50;containerType=tree;fontSize=32;fontColor=#33FFFF;" parent="Pp3ixRvNT5yIHclJK6_6-1" vertex="1">
                    <mxGeometry x="780" width="416" height="560" as="geometry"/>
                </mxCell>
                <mxCell id="NXDeuuNNnxQUC-3iIf2m-8" value="&lt;font style=&quot;font-size: 20px&quot;&gt;FUNCTIONS&lt;/font&gt;" style="whiteSpace=wrap;html=1;" parent="NXDeuuNNnxQUC-3iIf2m-7" vertex="1">
                    <mxGeometry x="119.0625" y="80" width="185" height="60" as="geometry"/>
                </mxCell>
                <mxCell id="NXDeuuNNnxQUC-3iIf2m-9" value="&lt;font style=&quot;font-size: 12px&quot;&gt;AlPHABETICALL ORDER(only for the first time only after that no rearranging) &amp;amp; ASCENDING ORDER&lt;br&gt;AUTO INCREMATION&lt;br&gt;&lt;/font&gt;" style="whiteSpace=wrap;html=1;" parent="NXDeuuNNnxQUC-3iIf2m-7" vertex="1">
                    <mxGeometry x="20" y="190" width="180" height="80" as="geometry"/>
                </mxCell>
                <mxCell id="NXDeuuNNnxQUC-3iIf2m-10" value="" style="html=1;curved=1;noEdgeStyle=1;orthogonal=1;" parent="NXDeuuNNnxQUC-3iIf2m-7" source="NXDeuuNNnxQUC-3iIf2m-8" target="NXDeuuNNnxQUC-3iIf2m-9" edge="1">
                    <mxGeometry relative="1" as="geometry">
                        <Array as="points">
                            <mxPoint x="167.8125" y="152"/>
                            <mxPoint x="110" y="178"/>
                        </Array>
                    </mxGeometry>
                </mxCell>
                <mxCell id="NXDeuuNNnxQUC-3iIf2m-11" value="IF, ELSE, LOOP, ARITHMATIC OPERATORS, FLOAT ASSIMILATION, INITIAL TO FULL" style="whiteSpace=wrap;html=1;" parent="NXDeuuNNnxQUC-3iIf2m-7" vertex="1">
                    <mxGeometry x="230" y="190.35" width="166.25" height="79.3" as="geometry"/>
                </mxCell>
                <mxCell id="NXDeuuNNnxQUC-3iIf2m-12" value="" style="html=1;curved=1;noEdgeStyle=1;orthogonal=1;" parent="NXDeuuNNnxQUC-3iIf2m-7" source="NXDeuuNNnxQUC-3iIf2m-8" target="NXDeuuNNnxQUC-3iIf2m-11" edge="1">
                    <mxGeometry relative="1" as="geometry">
                        <Array as="points">
                            <mxPoint x="255.3125" y="152"/>
                            <mxPoint x="313.125" y="178"/>
                        </Array>
                    </mxGeometry>
                </mxCell>
                <mxCell id="NXDeuuNNnxQUC-3iIf2m-13" value="&lt;font style=&quot;font-size: 11px&quot;&gt;TO GET AN ORGANISED VIEW OF DATA WHILE BROWSING(EVEN IF THE DATA WHILE ENTERING WAS JUMBLED OR IRREGULAR)&lt;/font&gt;" style="whiteSpace=wrap;html=1;" parent="NXDeuuNNnxQUC-3iIf2m-7" vertex="1">
                    <mxGeometry x="120.82124999999999" y="320" width="187.5" height="60" as="geometry"/>
                </mxCell>
                <mxCell id="NXDeuuNNnxQUC-3iIf2m-14" value="" style="html=1;curved=1;noEdgeStyle=1;orthogonal=1;" parent="NXDeuuNNnxQUC-3iIf2m-7" source="NXDeuuNNnxQUC-3iIf2m-9" target="NXDeuuNNnxQUC-3iIf2m-13" edge="1">
                    <mxGeometry relative="1" as="geometry">
                        <Array as="points">
                            <mxPoint x="110" y="282"/>
                            <mxPoint x="170.19625" y="308"/>
                        </Array>
                    </mxGeometry>
                </mxCell>
                <mxCell id="NXDeuuNNnxQUC-3iIf2m-15" value="" style="html=1;curved=1;noEdgeStyle=1;orthogonal=1;" parent="NXDeuuNNnxQUC-3iIf2m-7" source="NXDeuuNNnxQUC-3iIf2m-11" target="NXDeuuNNnxQUC-3iIf2m-13" edge="1">
                    <mxGeometry relative="1" as="geometry">
                        <Array as="points">
                            <mxPoint x="313.125" y="282"/>
                            <mxPoint x="258.94624999999996" y="308"/>
                        </Array>
                    </mxGeometry>
                </mxCell>
                <mxCell id="eg9HoDoHFmB2oO4siofI-15" value="" style="html=1;curved=1;noEdgeStyle=1;orthogonal=1;" parent="NXDeuuNNnxQUC-3iIf2m-7" source="NXDeuuNNnxQUC-3iIf2m-13" target="eg9HoDoHFmB2oO4siofI-16" edge="1">
                    <mxGeometry relative="1" as="geometry">
                        <Array as="points">
                            <mxPoint x="170.19625" y="392"/>
                            <mxPoint x="116.875" y="418"/>
                        </Array>
                        <mxPoint x="1430" y="2430" as="sourcePoint"/>
                    </mxGeometry>
                </mxCell>
                <mxCell id="eg9HoDoHFmB2oO4siofI-16" value="Admin would personally have to look into filling the numbered heading , only once for easier access to teachers profile and use the primary key featue&amp;nbsp;" style="whiteSpace=wrap;html=1;" parent="NXDeuuNNnxQUC-3iIf2m-7" vertex="1">
                    <mxGeometry x="21.715000000000003" y="430" width="190.32" height="110" as="geometry"/>
                </mxCell>
                <mxCell id="eg9HoDoHFmB2oO4siofI-17" value="" style="html=1;curved=1;noEdgeStyle=1;orthogonal=1;" parent="NXDeuuNNnxQUC-3iIf2m-7" source="NXDeuuNNnxQUC-3iIf2m-13" target="eg9HoDoHFmB2oO4siofI-18" edge="1">
                    <mxGeometry relative="1" as="geometry">
                        <Array as="points">
                            <mxPoint x="258.94624999999996" y="392"/>
                            <mxPoint x="318.28499999999997" y="418"/>
                        </Array>
                        <mxPoint x="1511.6666666666665" y="2460" as="sourcePoint"/>
                    </mxGeometry>
                </mxCell>
                <mxCell id="eg9HoDoHFmB2oO4siofI-18" value="&lt;font style=&quot;font-size: 12px&quot;&gt;&amp;nbsp;In order to search the info of a paticulat teachers profile or acess its record to either modify or delete data only the primary key will be rquired to fill rest is&lt;br&gt;&amp;nbsp;automatic&amp;nbsp;&amp;nbsp;&lt;/font&gt;" style="whiteSpace=wrap;html=1;" parent="NXDeuuNNnxQUC-3iIf2m-7" vertex="1">
                    <mxGeometry x="242.03499999999997" y="432.5" width="152.5" height="105" as="geometry"/>
                </mxCell>
                <mxCell id="NXDeuuNNnxQUC-3iIf2m-5" value="" style="endArrow=none;html=1;rounded=0;" parent="Pp3ixRvNT5yIHclJK6_6-1" edge="1">
                    <mxGeometry relative="1" as="geometry">
                        <mxPoint x="680" y="480" as="sourcePoint"/>
                        <mxPoint x="680" as="targetPoint"/>
                    </mxGeometry>
                </mxCell>
                <mxCell id="eg9HoDoHFmB2oO4siofI-43" value="" style="endArrow=none;html=1;rounded=0;fontSize=32;fontColor=#33FFFF;" parent="Pp3ixRvNT5yIHclJK6_6-1" edge="1">
                    <mxGeometry relative="1" as="geometry">
                        <mxPoint x="6" y="580" as="sourcePoint"/>
                        <mxPoint x="1196" y="580" as="targetPoint"/>
                    </mxGeometry>
                </mxCell>
                <mxCell id="eg9HoDoHFmB2oO4siofI-49" value="&lt;font color=&quot;#ff3333&quot; style=&quot;font-size: 23px&quot;&gt;USAGE OF DATABSE&lt;/font&gt;" style="rounded=1;arcSize=10;whiteSpace=wrap;html=1;align=center;fontSize=32;fontColor=#33FFFF;" parent="Pp3ixRvNT5yIHclJK6_6-1" vertex="1">
                    <mxGeometry x="10" y="490" width="260" height="50" as="geometry"/>
                </mxCell>
                <mxCell id="eg9HoDoHFmB2oO4siofI-53" value="" style="html=1;shadow=0;dashed=0;align=center;verticalAlign=middle;shape=mxgraph.arrows2.arrow;dy=0.67;dx=20;notch=0;fontSize=32;fontColor=#33FFFF;" parent="Pp3ixRvNT5yIHclJK6_6-1" vertex="1">
                    <mxGeometry x="270" y="502.5" width="90" height="25" as="geometry"/>
                </mxCell>
                <mxCell id="eg9HoDoHFmB2oO4siofI-54" value="&lt;h5&gt;&lt;font style=&quot;font-size: 13px&quot; color=&quot;#ffffff&quot;&gt;Mainly data storing and then reverting it back for display&lt;/font&gt;&lt;/h5&gt;" style="rounded=1;arcSize=10;whiteSpace=wrap;html=1;align=center;fontSize=32;fontColor=#33FFFF;" parent="Pp3ixRvNT5yIHclJK6_6-1" vertex="1">
                    <mxGeometry x="360" y="485" width="220" height="60" as="geometry"/>
                </mxCell>
            </root>
        </mxGraphModel>
    </diagram>
</mxfile>